<svg height="445pt" viewBox="-90 0 445 445.467" width="445pt" xmlns="http://www.w3.org/2000/svg"><path d="m12.234375 72.148438h20v276.851562h-20zm0 0" fill="#d4e1f4"/><path d="m58.332031 12h-20c-14.40625.015625-26.082031 11.691406-26.097656 26.101562v22.046876h20v-22.050782c.015625-14.40625 11.691406-26.082031 26.097656-26.097656zm0 0" fill="#d4e1f4"/><path d="m32.234375 407.367188v-46.367188h-20v46.367188c.015625 14.40625 11.691406 26.082031 26.097656 26.101562h20c-14.40625-.019531-26.082031-11.695312-26.097656-26.101562zm0 0" fill="#d4e1f4"/><path d="m226.132812 0h-187.800781c-21.03125.0234375-38.074219 17.066406-38.097656 38.101562v369.265626c.023437 21.03125 17.066406 38.078124 38.097656 38.101562h187.800781c21.03125-.023438 38.078126-17.070312 38.101563-38.101562v-369.269532c-.023437-21.03125-17.070313-38.0742185-38.101563-38.097656zm-213.898437 72.148438h240v276.851562h-240zm26.097656-60.148438h187.800781c14.410157.015625 26.085938 11.691406 26.101563 26.101562v22.046876h-240v-22.050782c.015625-14.40625 11.691406-26.082031 26.097656-26.097656zm187.800781 421.464844h-187.800781c-14.40625-.015625-26.082031-11.691406-26.097656-26.097656v-46.367188h240v46.367188c-.015625 14.40625-11.691406 26.082031-26.101563 26.097656zm0 0" fill="#0635c9"/><path d="m160.554688 391.53125h-56.644532c-3.3125 0-6 2.6875-6 6 0 3.316406 2.6875 6 6 6h56.644532c3.316406 0 6-2.683594 6-6 0-3.3125-2.683594-6-6-6zm0 0" fill="#0635c9"/><g fill="#1ae5be"><path d="m148.789062 206.5-23.917968 19.460938-8.417969-9.859376c-2.152344-2.519531-5.941406-2.816406-8.460937-.667968-2.519532 2.152344-2.816407 5.941406-.664063 8.460937l12.21875 14.316407c2.117187 2.476562 5.824219 2.8125 8.351563.753906l28.464843-23.15625c1.683594-1.347656 2.515625-3.492188 2.179688-5.621094-.335938-2.132812-1.789063-3.917969-3.804688-4.679688-2.015625-.761718-4.289062-.382812-5.949219.992188zm0 0"/><path d="m172.519531 176.984375v-36.875c0-21.988281-17.824219-39.8125-39.808593-39.8125-21.988282 0-39.8125 17.824219-39.8125 39.8125v36.050781c-19.488282 16.441406-26.699219 43.273438-18.070313 67.269532 8.628906 23.996093 31.273437 40.089843 56.773437 40.355468 25.496094.261719 48.46875-15.363281 57.589844-39.171875 9.125-23.8125 2.476563-50.785156-16.671875-67.628906zm-67.621093-36.875c0-15.359375 12.453124-27.8125 27.8125-27.8125 15.359374 0 27.808593 12.453125 27.808593 27.8125v28.597656c-17.375-9.128906-38.089843-9.3125-55.621093-.488281zm27.335937 131.625c-27.0625 0-49-21.9375-49-49s21.9375-49 49-49 49 21.9375 49 49c-.03125 27.046875-21.953125 48.96875-49 49zm0 0"/><path d="m225.734375 216.734375h-10.5c-3.316406 0-6 2.683594-6 6 0 3.3125 2.683594 6 6 6h10.5c3.3125 0 6-2.6875 6-6 0-3.316406-2.6875-6-6-6zm0 0"/><path d="m49.234375 228.734375c3.3125 0 6-2.6875 6-6 0-3.316406-2.6875-6-6-6h-10.5c-3.316406 0-6 2.683594-6 6 0 3.3125 2.683594 6 6 6zm0 0"/><path d="m222.585938 247.523438-14.652344-5.050782c-3.132813-1.082031-6.550782.585938-7.628906 3.71875-1.078126 3.132813.585937 6.546875 3.71875 7.625l14.652343 5.050782c3.136719 1.082031 6.550781-.585938 7.628907-3.71875 1.078124-3.132813-.585938-6.546876-3.71875-7.625zm0 0"/><path d="m60.445312 191.648438-14.65625-5.050782c-3.132812-1.078125-6.546874.585938-7.628906 3.71875-1.078125 3.132813.585938 6.546875 3.71875 7.628906l14.65625 5.046876c3.132813 1.082031 6.546875-.582032 7.625-3.714844 1.082032-3.136719-.582031-6.550782-3.714844-7.628906zm0 0"/><path d="m200.988281 201.359375c.46875 1.519531 1.527344 2.792969 2.933594 3.53125 1.410156.742187 3.058594.890625 4.578125.417969l14.796875-4.601563c2.058594-.628906 3.621094-2.308593 4.097656-4.40625.480469-2.097656-.203125-4.289062-1.785156-5.746093-1.582031-1.457032-3.824219-1.957032-5.871094-1.308594l-14.800781 4.601562c-3.164062.984375-4.933594 4.347656-3.949219 7.511719zm0 0"/><path d="m55.96875 240.160156-14.800781 4.597656c-2.054688.628907-3.621094 2.308594-4.097657 4.40625-.476562 2.097657.203126 4.289063 1.785157 5.746094 1.582031 1.457032 3.824219 1.957032 5.875 1.308594l14.800781-4.601562c2.054688-.628907 3.621094-2.308594 4.097656-4.40625.476563-2.097657-.203125-4.289063-1.785156-5.746094-1.582031-1.457032-3.824219-1.953125-5.875-1.304688zm0 0"/></g></svg>