<svg height="492pt" viewBox="-47 0 492 492" width="492pt" xmlns="http://www.w3.org/2000/svg"><path d="m199.738281 312.066406c.261719-.675781.394531-1.398437.398438-2.125.023437-9.484375.085937-20.230468.152343-21.460937 2.753907-52.550781 46.226563-93.714844 98.851563-93.59375.378906 0 .75 0 1.128906.007812.855469.007813 1.707031.027344 2.558594.058594 1.246094.042969 2.488281.125 3.726563.222656-49.574219 3.691407-88.671876 43.660157-91.265626 93.304688-.066406 1.230469-.128906 11.976562-.152343 21.460937-.003907.726563-.136719 1.449219-.398438 2.125l-19.457031 50.96875h-15zm0 0" fill="#d4e1f4"/><path d="m230.300781 369.035156v34.464844c-.003906 8.871094 6.695313 16.308594 15.515625 17.230469-7.597656.042969-11.863281.074219-12.683594.101562-4.683593.132813-9.21875-1.632812-12.578124-4.898437-3.359376-3.265625-5.253907-7.75-5.253907-12.433594v-34.464844c0-3.3125-2.6875-6-6-6h15c3.3125 0 6 2.6875 6 6zm0 0" fill="#d4e1f4"/><path d="m156.558594 58.734375c0-3.3125-2.6875-6-6-6-39.984375-.136719-78.359375 15.730469-106.566406 44.066406-28.371094 28.871094-43.992188 66.683594-43.992188 106.484375 0 83.015625 67.539062 150.554688 150.558594 150.554688 11.058594.007812 22.085937-1.183594 32.890625-3.554688l-2.585938-11.71875c-9.953125 2.183594-20.117187 3.28125-30.304687 3.273438-76.402344 0-138.558594-62.15625-138.558594-138.554688 0-36.632812 14.398438-71.460937 40.515625-98.035156 24.484375-24.59375 57.363281-39.019531 92.042969-40.390625v138.425781c0 3.3125 2.683594 6 6 6h101.953125v-12h-95.953125zm0 0" fill="#0635c9"/><path d="m310.675781 44c-28.867187-28.375-66.683593-44-106.484375-44-3.3125 0-6 2.6875-6 6v144.554688c0 3.3125 2.6875 6 6 6h144.554688c3.316406 0 6-2.6875 6-6 0-39.800782-15.625-77.617188-44-106.484376-.019532-.023437-.042969-.050781-.070313-.070312zm14.984375 39.972656-60.589844 60.582032h-46.847656l87.898438-87.902344c7.5625 8.304687 14.121094 17.476562 19.539062 27.316406zm-115.46875 4.789063 59.996094-59.992188c9.875 5.367188 19.085938 11.886719 27.433594 19.417969l-87.429688 87.425781zm48.570313-65.535157-48.570313 48.566407v-59.664063c16.730469.71875 33.1875 4.480469 48.570313 11.097656zm23.285156 121.328126 49.199219-49.199219c6.785156 15.558593 10.640625 32.242187 11.367187 49.203125zm0 0" fill="#0635c9"/><g fill="#1ae5be"><path d="m301.703125 186.960938c-.929687-.035157-1.867187-.058594-2.804687-.066407h-.074219c-58.285157-.625-106.738281 44.734375-109.953125 102.933594-.109375 1.789063-.15625 15.765625-.167969 20.636719l-19.367187 50.726562c-1.238282 3.25-.800782 6.902344 1.171874 9.769532 1.972657 2.867187 5.230469 4.578124 8.710938 4.578124h24.351562v27.800782c-.027343 7.820312 3.140626 15.308594 8.773438 20.730468 5.609375 5.425782 13.167969 8.359376 20.964844 8.144532 1.175781-.039063 12.085937-.101563 29.933594-.175782h.035156c3.785156-.003906 7.144531 2.421876 8.332031 6.015626v47.945312c0 3.3125 2.683594 6 6 6h91.871094c1.644531 0 3.210937-.671875 4.34375-1.859375 1.132812-1.1875 1.730469-2.789063 1.652343-4.429687-.035156-.75-3.570312-75.648438-.019531-113.800782.800781-8.597656 8.519531-29.183594 11.570313-36.757812 16.164062-31 15.238281-68.136719-2.449219-98.296875-17.152344-29.828125-48.484375-48.691407-82.875-49.894531zm70.910156 53.300781h-38.742187c-16.039063-.003907-29.039063-13.003907-29.042969-29.042969v-12.058594c27.859375 2.109375 53.035156 17.378906 67.785156 41.101563zm-124.742187-27.695313v12.40625c0 12.960938-10.503906 23.464844-23.464844 23.464844h-11.425781c8.289062-14.804688 20.320312-27.175781 34.890625-35.871094zm-46.628906 72.941406h15.402343c6.808594 0 12.328125 5.519532 12.328125 12.328126 0 6.808593-5.519531 12.328124-12.328125 12.328124h-15.945312c.023437-8.914062.082031-18.457031.148437-19.644531.089844-1.683593.222656-3.355469.398438-5.011719zm31.6875 134.707032c-4.558594.128906-8.972657-1.59375-12.242188-4.773438-3.269531-3.175781-5.117188-7.542968-5.117188-12.105468v-33.800782c0-3.3125-2.6875-6-6-6h-28.289062l15.796875-41.375h19.570313c13.433593 0 24.328124-10.890625 24.328124-24.328125s-10.894531-24.328125-24.328124-24.328125h-13.378907c1.039063-4.445312 2.390625-8.8125 4.050781-13.070312h17.089844c19.582032 0 35.460938-15.875 35.460938-35.460938v-18.472656c10.464844-4.402344 21.621094-6.933594 32.957031-7.480469v12.207031c.003906 22.664063 18.378906 41.035157 41.042969 41.035157h45.078125c4.789062 10.921875 7.355469 22.691406 7.546875 34.617187l-42.59375 10.597656c-17.738282-16.867187-44.28125-20.488281-65.890625-8.984374-21.605469 11.5-33.429688 35.539062-29.34375 59.675781 4.085937 24.132812 23.160156 42.945312 47.347656 46.695312-3.972656 14.796875-17.351563 25.105469-32.671875 25.171875h-.160156c-12.878906.054688-28.589844.128906-30.25.179688zm101.730468-48.140625-12.746094-18.785157c7.316407-8.601562 7.148438-21.285156-.394531-29.691406-7.542969-8.402344-20.136719-9.933594-29.472656-3.589844-9.339844 6.347657-12.550781 18.621094-7.511719 28.726563 5.035156 10.105469 16.765625 14.933594 27.457032 11.296875l12.742187 18.789062c-21.179687 10.578126-46.9375 2.929688-58.90625-17.496093-11.972656-20.429688-6.0625-46.636719 13.519531-59.949219 19.578125-13.308594 46.125-9.164062 60.714844 9.484375s12.226562 45.410156-5.402344 61.214844zm-20.070312-29.585938-4.878906-7.195312c-1.867188-2.730469-5.589844-3.4375-8.324219-1.582031-2.734375 1.859374-3.457031 5.578124-1.609375 8.320312l4.882812 7.199219c-4.640625-.023438-8.730468-3.066407-10.085937-7.511719-1.351563-4.441406.34375-9.246094 4.183593-11.855469 3.84375-2.609375 8.9375-2.414062 12.566407.480469 3.632812 2.894531 4.953125 7.816406 3.265625 12.144531zm-11.914063 106.867188c0-2.207031 1.789063-3.992188 3.992188-3.992188 2.207031 0 3.996093 1.789063 3.992187 3.992188 0 2.207031-1.785156 3.992187-3.992187 3.992187-2.203125-.003906-3.988281-1.789062-3.992188-3.992187zm73.332031-118.964844c-1.160156 2.867187-11.382812 28.378906-12.5 40.410156-3.058593 32.84375-1.082031 90.117188-.292968 109.199219h-12.8125v-6.6875c0-3.3125-2.683594-6-6-6-3.3125 0-6 2.6875-6 6v6.6875h-25.730469v-15.828125c7.09375-2.875 11.160156-10.371094 9.699219-17.882813-1.464844-7.511718-8.046875-12.9375-15.699219-12.9375-7.65625 0-14.238281 5.425782-15.699219 12.9375-1.460937 7.511719 2.601563 15.007813 9.699219 17.882813v15.828125h-17.066406v-42.789062c0-.496094-.0625-.984376-.179688-1.464844-.632812-2.5-1.726562-4.859375-3.226562-6.960938 14.328125-5.734375 24.839843-18.257812 28.003906-33.363281 8.160156-.488281 16.117187-2.738281 23.320313-6.601563l6.878906 10.144532v32.792968c-7.097656 2.855469-11.175782 10.34375-9.730469 17.855469 1.449219 7.515625 8.015625 12.949219 15.667969 12.964844 7.652344.019531 14.242187-5.390625 15.722656-12.898437 1.476562-7.507813-2.570312-15.011719-9.660156-17.898438v-34.660156c0-1.199219-.359375-2.375-1.035156-3.367188l-7.925782-11.6875c21.902344-18.453125 26.617188-50.339844 10.988282-74.34375l33.378906-8.308594c-1.347656 10.636719-4.585938 20.949219-9.558594 30.449219-.089844.171875-.167969.347657-.242188.527344zm-31.636718 112.203125c2.207031 0 3.992187 1.785156 3.992187 3.992188 0 2.203124-1.785156 3.992187-3.992187 3.992187-2.207032 0-3.992188-1.789063-3.992188-3.992187.003906-2.203126 1.789063-3.988282 3.992188-3.992188zm0 0"/><path d="m280.84375 364.332031c-1.808594 2.777344-1.019531 6.492188 1.753906 8.300781 6.597656 4.296876 14.300782 6.585938 22.171875 6.582032h.007813c3.3125 0 6-2.6875 5.996094-6.003906 0-3.3125-2.6875-5.996094-6.003907-5.996094-5.546875.003906-10.976562-1.609375-15.625-4.640625-2.777343-1.808594-6.496093-1.019531-8.300781 1.757812zm0 0"/><path d="m283.742188 303.976562c-6.75 4.074219-12.15625 10.035157-15.554688 17.148438-.949219 1.9375-.785156 4.234375.429688 6.015625 1.210937 1.78125 3.289062 2.777344 5.4375 2.605469 2.148437-.171875 4.039062-1.484375 4.953124-3.4375 2.390626-5 6.191407-9.195313 10.9375-12.058594 2.839844-1.714844 3.746094-5.402344 2.035157-8.238281-1.714844-2.835938-5.402344-3.746094-8.238281-2.035157zm0 0"/><path d="m341.269531 321.058594c-.9375-1.949219-2.03125-3.824219-3.269531-5.601563-.507812-.726562-1.042969-1.449219-1.597656-2.140625-2.074219-2.585937-5.847656-3.007812-8.4375-.933594-2.585938 2.070313-3.007813 5.847657-.9375 8.433594.390625.484375.765625.992188 1.121094 1.5.875 1.257813 1.648437 2.578125 2.3125 3.957032 1.871093 3.855468 2.839843 8.082031 2.835937 12.367187 0 1.242187-.082031 2.484375-.242187 3.714844-.429688 3.285156 1.882812 6.296875 5.167968 6.730469.261719.03125.527344.050781.789063.050781 3.007812-.003907 5.550781-2.238281 5.941406-5.222657.230469-1.746093.34375-3.507812.34375-5.273437.007813-6.089844-1.367187-12.101563-4.027344-17.582031zm0 0"/></g></svg>