<svg height="491pt" viewBox="0 -22 491.99198 491" width="491pt" xmlns="http://www.w3.org/2000/svg"><path d="m192.261719 212.953125c-31.6875-31.652344-42.605469-78.574219-28.144531-120.960937 14.457031-42.386719 51.773437-72.855469 96.199218-78.539063-4.976562-.636719-9.984375-.957031-15-.960937-43.757812-.027344-83.902344 24.285156-104.148437 63.078124-20.25 38.789063-17.246094 85.625 7.792969 121.511719 25.039062 35.886719 67.957031 54.867188 111.355468 49.253907-25.765625-3.257813-49.710937-15.003907-68.054687-33.382813zm0 0" fill="#d4e1f4"/><path d="m314.316406 241.742188c.886719-1.710938 1.75-3.445313 2.558594-5.160157l-10.847656-5.128906c-.785156 1.664063-1.621094 3.34375-2.488282 5-.089843.171875-.167968.347656-.242187.527344-.671875 1.660156-16.476563 40.851562-18.109375 58.355469-2.253906 24.21875.214844 56.617187 7.34375 96.300781 3.460938 19.304687 7.253906 35.730469 9.460938 44.800781h-128l-15.597657-62.046875c-.671875-2.664063-3.070312-4.535156-5.820312-4.535156h-.023438c-2.339843.007812-57.398437.210937-61.136719.328125-7.425781.214844-14.621093-2.589844-19.949218-7.765625s-8.335938-12.289063-8.335938-19.714844v-49.46875c0-3.3125-2.6875-6-6-6h-44.433594c-.230468 0-.445312-.113281-.574218-.300781s-.160156-.429688-.078125-.644532l28.914062-75.742187c.257813-.679687.394531-1.402344.394531-2.128906.027344-10.96875.109376-29.070313.226563-30.984375 3.792969-69.175782 56.097656-125.953125 124.730469-135.398438l-1.613282-11.898437c-74.320312 10.222656-130.964843 71.691406-135.089843 146.597656-.160157 2.617187-.230469 24.773437-.242188 30.550781l-28.527343 74.722656c-1.492188 3.902344-.964844 8.289063 1.402343 11.730469 2.367188 3.4375 6.277344 5.496094 10.457031 5.496094h38.429688v43.464844c0 10.675781 4.324219 20.898437 11.984375 28.332031 7.660156 7.4375 18.003906 11.457031 28.671875 11.144531 2.648438-.082031 35.546875-.226562 56.117188-.304687l15.597656 62.027344c.671875 2.664062 3.070312 4.535156 5.820312 4.539062h140.378906c1.863282 0 3.621094-.867188 4.757813-2.34375 1.136719-1.480469 1.519531-3.402344 1.039063-5.203125-.234376-.886719-23.507813-89.050781-18.351563-144.4375 1.402344-15.082031 15.796875-51.277344 17.175781-54.710937zm0 0" fill="#0635c9"/><g fill="#1ae5be"><path d="m285.992188 175.011719h-40c-3.3125 0-6 2.6875-6 6v40c0 3.316406 2.6875 6 6 6h40c3.316406 0 6-2.683594 6-6v-40c0-3.3125-2.683594-6-6-6zm-6 40h-28v-28h28zm0 0"/><path d="m214.210938 168.40625c1.082031-1.824219 1.117187-4.082031.09375-5.941406l-19.773438-36c-1.054688-1.917969-3.070312-3.113282-5.261719-3.113282-2.1875 0-4.203125 1.195313-5.257812 3.113282l-19.777344 36c-1.019531 1.859375-.984375 4.117187.09375 5.941406 1.082031 1.828125 3.042969 2.945312 5.164063 2.945312h39.554687c2.121094 0 4.085937-1.117187 5.164063-2.945312zm-34.574219-9.054688 9.632812-17.539062 9.636719 17.539062zm0 0"/><path d="m199.988281 179.011719c-12.417969 0-22.480469 10.066406-22.480469 22.480469 0 12.417968 10.0625 22.484374 22.480469 22.484374 12.414063 0 22.480469-10.066406 22.480469-22.484374-.015625-12.410157-10.070312-22.464844-22.480469-22.480469zm0 32.964843c-5.789062 0-10.480469-4.695312-10.480469-10.484374 0-5.785157 4.691407-10.480469 10.480469-10.480469 5.789063 0 10.480469 4.695312 10.480469 10.480469-.007812 5.789062-4.695312 10.476562-10.480469 10.484374zm0 0"/><path d="m236.105469 76.144531h39.554687c3.3125 0 6-2.6875 6-6v-39.554687c0-3.3125-2.6875-6-6-6h-39.554687c-3.316407 0-6 2.6875-6 6v39.554687c0 3.3125 2.683593 6 6 6zm6-39.554687h27.554687v27.554687h-27.554687zm0 0"/><path d="m194.730469 101.035156c1.050781 1.917969 3.066406 3.113282 5.257812 3.113282 2.1875 0 4.203125-1.195313 5.257813-3.113282l19.777344-36c1.019531-1.859375.984374-4.117187-.09375-5.941406-1.082032-1.828125-3.042969-2.945312-5.164063-2.945312h-39.554687c-2.121094 0-4.085938 1.117187-5.164063 2.945312-1.078125 1.824219-1.117187 4.082031-.09375 5.941406zm14.894531-32.890625-9.636719 17.542969-9.636719-17.542969zm0 0"/><path d="m184.5 107.921875c0-14.234375-11.542969-25.777344-25.777344-25.777344-14.238281 0-25.777344 11.542969-25.777344 25.777344 0 14.238281 11.539063 25.777344 25.777344 25.777344 14.230469-.015625 25.761719-11.546875 25.777344-25.777344zm-25.777344 13.777344c-7.609375 0-13.78125-6.167969-13.78125-13.777344s6.167969-13.777344 13.777344-13.777344c7.613281 0 13.78125 6.167969 13.78125 13.777344-.011719 7.605469-6.171875 13.769531-13.777344 13.777344zm0 0"/><path d="m337.226562 81.550781c-.003906-14.234375-11.542968-25.769531-25.78125-25.769531-14.234374.003906-25.773437 11.542969-25.773437 25.78125.003906 14.234375 11.542969 25.773438 25.777344 25.773438 14.234375-.015626 25.765625-11.550782 25.777343-25.785157zm-39.554687 0c.003906-7.605469 6.175781-13.769531 13.78125-13.769531 7.609375.003906 13.777344 6.171875 13.773437 13.78125 0 7.605469-6.167968 13.773438-13.777343 13.773438-7.605469-.007813-13.769531-6.175782-13.777344-13.785157zm0 0"/><path d="m356.136719 139.027344c-.144531-2.1875-1.46875-4.117188-3.457031-5.039063l-50-23.238281c-1.921876-.890625-4.175782-.703125-5.921876.496094-1.75 1.199218-2.734374 3.234375-2.59375 5.351562l3.570313 52.96875c.144531 2.117188 1.390625 4 3.285156 4.957032 1.894531.953124 4.152344.839843 5.9375-.304688l46.429688-29.738281c1.84375-1.179688 2.898437-3.269531 2.75-5.453125zm-47.109375 19.617187-2.207032-32.738281 30.898438 14.359375zm0 0"/><path d="m285.511719 127.699219c0-19.882813-16.117188-36-36-36-19.882813 0-36 16.117187-36 36 0 19.882812 16.117187 36 36 36 19.875-.023438 35.976562-16.125 36-36zm-60 0c0-13.253907 10.746093-24 24-24 13.253906 0 24 10.746093 24 24 0 13.253906-10.746094 24-24 24-13.246094-.015625-23.984375-10.75-24-24zm0 0"/><path d="m392.6875 227.6875c-2.34375-2.34375-6.144531-2.34375-8.484375 0l-16.308594 16.304688-26.902343-26.898438c46.289062-50.738281 44.914062-129.683594-4.140626-178.738281-49.992187-49.949219-130.816406-50.550781-181.546874-1.351563-50.730469 49.203125-52.605469 130.003906-4.210938 181.503906 48.398438 51.5 129.160156 54.648438 181.414062 7.070313l26.902344 26.898437-16.304687 16.304688c-2.34375 2.34375-2.34375 6.144531 0 8.488281l89.039062 89.039063c13.691407 13.6875 35.886719 13.6875 49.578125 0 13.691406-13.691406 13.691406-35.890625 0-49.582032zm-230.425781-14.734375c-45.871094-45.871094-45.871094-120.242187 0-166.109375 45.871093-45.871094 120.238281-45.871094 166.109375 0 45.871094 45.867188 45.871094 120.238281 0 166.109375-45.898438 45.796875-120.210938 45.796875-166.109375 0zm310.980469 144.867187c-9.007813 9.003907-23.605469 9.003907-32.609376 0l-84.800781-84.800781 32.609375-32.609375 84.800782 84.800782c8.988281 9.011718 8.988281 23.597656 0 32.609374zm0 0"/></g></svg>