<svg width="738" height="137" viewBox="0 0 738 137" fill="none" xmlns="http://www.w3.org/2000/svg">
<g clip-path="url(#clip0)">
<path d="M34.3182 15.1069L35.3634 16.538L36.6817 18.1106L39.0608 20.8257L42.6529 24.4686L44.3965 25.9618L47.0838 28.1721L50.2748 30.1864L53.2173 31.705L56.4161 33.7299L60.7209 36.7671L64.377 39.8044L67.5108 41.9395L73.9628 43.1772L81.0907 43.8541L86.836 43.8541L77.8994 112.13L75.336 112.911L72.336 113.731L68.336 114.275L63.836 114.806L59.836 114.806L54.6099 114.532L51.5359 114.275L47.5911 113.731L43.8902 112.911L40.0049 112.086L36.2835 110.826L32.4374 109.28L29.5587 108.012L25.8686 106.175L23.2864 104.615L22.0616 103.907L20.8525 102.91L22.3816 103.183L24.0591 103.31L25.323 103.297L27.2891 103.277L28.553 103.264L30.1057 103.104L31.7909 103.086L33.4918 102.781L35.3331 102.473L37.3149 102.165L39.4527 101.566L42.1602 100.817L45.1641 99.7773L48.3242 98.4472L51.2112 96.9758L53.6691 95.6529L55.7056 94.3344L57.6017 93.0173L59.3574 91.7016L56.4161 91.5876L53.2173 91.0436L48.8173 89.3584L46.3755 87.7974L45.1585 86.9447L43.8168 85.805L42.475 84.6652L41.6794 83.8083L40.7627 82.595L39.1792 80.7368L38.0326 78.5857L37.0422 76.1447L36.6835 74.9949L36.4731 73.6994L37.4483 73.8336L40.9436 74.0862L42.7693 74.0675L44.1893 73.7645L45.0319 73.7559L47.5911 73.1529L46.4832 72.8759L44.2754 72.1776L42.4966 71.3307L40.4449 70.3424L38.8223 69.2056L37.0748 67.7816L35.3353 66.2134L33.8728 64.7115L32.5739 62.7812L31.443 60.3416L30.1795 57.7592L29.4935 54.8825L28.9886 52.2923L28.6361 49.9889L28.6987 48.8348L28.7967 47.0286L30.708 48.0183L32.5818 48.795L33.7309 49.2158L36.7814 49.9055L40.1325 50.2287L38.5177 48.9476L36.115 46.6652L34.4068 44.5199L32.9537 41.9395L31.482 38.9266L30.6633 35.9071L30.1098 33.1732L30.0246 29.5695L30.1733 26.8284L30.4389 24.5187L31.1337 22.0604L31.649 20.3249L32.4529 18.4422L33.2412 16.8481L34.006 15.6868L34.3182 15.1069Z" fill="#12B1FC"/>
<path d="M69.1935 56.3585H46.7935V43.1585H107.793V56.3585H85.3935V113.159H69.1935V56.3585Z" fill="#12B1FC"/>
<path d="M227.1 43L204.2 113H186.8L171.4 65.6L155.5 113H138.2L115.2 43H132L147.8 92.2L164.3 43H179.3L195.3 92.6L211.6 43H227.1Z" fill="#12B1FC"/>
<path d="M292.5 100V113H238.3V43H291.2V56H254.4V71.2H286.9V83.8H254.4V100H292.5Z" fill="#12B1FC"/>
<path d="M355.5 100V113H301.3V43H354.2V56H317.4V71.2H349.9V83.8H317.4V100H355.5Z" fill="#12B1FC"/>
<path d="M385.8 56.2H363.4V43H424.4V56.2H402V113H385.8V56.2Z" fill="#12B1FC"/>
<path d="M498 113L497.9 71L477.3 105.6H470L449.5 71.9V113H434.3V43H447.7L473.9 86.5L499.7 43H513L513.2 113H498Z" fill="#12B1FC"/>
<path d="M579.4 98H546.9L540.7 113H524.1L555.3 43H571.3L602.6 113H585.6L579.4 98ZM574.3 85.7L563.2 58.9L552.1 85.7H574.3Z" fill="#12B1FC"/>
<path d="M614.8 56.2H592.4V43H653.4V56.2H631V113H614.8V56.2Z" fill="#12B1FC"/>
<path d="M717.5 100V113H663.3V43H716.2V56H679.4V71.2H711.9V83.8H679.4V100H717.5Z" fill="#12B1FC"/>
</g>
<defs>
<clipPath id="clip0">
<rect width="738" height="137" fill="white"/>
</clipPath>
</defs>
</svg>
