<svg width="184" height="184" viewBox="0 0 184 184" fill="none" xmlns="http://www.w3.org/2000/svg">
<g clip-path="url(#clip0)">
<rect width="184" height="184" fill="white"/>
<circle cx="92.281" cy="92.281" r="77.281" fill="white" stroke="#12B1FC" stroke-width="10"/>
<path d="M99.6096 78.7818H77.2096V65.5818H138.21V78.7818H115.81V135.582H99.6096V78.7818Z" fill="#12B1FC"/>
<path d="M64.8389 36.8731L65.8751 38.3061L67.182 39.8807L69.5405 42.5994L73.1014 46.247L74.83 47.7421L77.494 49.9553L80.6574 51.9722L83.5744 53.4928L86.7454 55.5203L91.0129 58.5615L94.6374 61.6027L97.744 63.7406L104.14 64.9799L111.206 65.6577L116.902 65.6577L108.043 134.023L105.501 134.805L102.527 135.625L98.5621 136.17L94.101 136.702L90.1357 136.702L84.9549 136.427L81.9075 136.17L77.9968 135.625L74.328 134.805L70.4764 133.978L66.7873 132.717L62.9745 131.168L60.1207 129.898L56.4626 128.059L53.9028 126.498L52.6886 125.789L51.4899 124.79L53.0058 125.063L54.6687 125.191L55.9217 125.178L57.8708 125.157L59.1237 125.144L60.6629 124.984L62.3336 124.967L64.0197 124.661L65.8451 124.353L67.8097 124.044L69.929 123.445L72.613 122.695L75.5909 121.654L78.7236 120.322L81.5856 118.848L84.0222 117.524L86.0411 116.204L87.9208 114.885L89.6613 113.567L86.7454 113.453L83.5744 112.908L79.2124 111.221L76.7918 109.658L75.5854 108.804L74.2552 107.663L72.9251 106.522L72.1363 105.664L71.2276 104.449L69.6578 102.588L68.5212 100.434L67.5394 97.9903L67.1838 96.839L66.9752 95.5418L67.942 95.6761L71.4069 95.929L73.2168 95.9103L74.6245 95.607L75.4598 95.5984L77.9968 94.9946L76.8986 94.7172L74.7099 94.018L72.9466 93.17L70.9126 92.1804L69.304 91.0421L67.5717 89.6163L65.8472 88.046L64.3974 86.5422L63.1098 84.6094L61.9887 82.1666L60.7362 79.5808L60.056 76.7004L59.5555 74.1069L59.2061 71.8005L59.2681 70.6449L59.3653 68.8363L61.2601 69.8273L63.1176 70.605L64.2568 71.0264L67.2808 71.717L70.6029 72.0406L69.0021 70.7578L66.6202 68.4725L64.9268 66.3244L63.4863 63.7406L62.0273 60.7238L61.2157 57.7004L60.667 54.9629L60.5825 51.3545L60.73 48.6099L60.9933 46.2972L61.6821 43.8357L62.1929 42.0979L62.9898 40.2128L63.7713 38.6166L64.5294 37.4538L64.8389 36.8731Z" fill="#12B1FC"/>
</g>
<defs>
<clipPath id="clip0">
<rect width="184" height="184" fill="white"/>
</clipPath>
</defs>
</svg>
